<svg xmlns="http://www.w3.org/2000/svg" width="180" height="180" viewBox="0 0 512 512">
  <defs>
    <radialGradient id="bg3" cx="50%" cy="50%" r="50%">
      <stop offset="0%" stop-color="#1a0533"/>
      <stop offset="100%" stop-color="#0a0a23"/>
    </radialGradient>
    <radialGradient id="body3" cx="35%" cy="32%" r="65%">
      <stop offset="0%" stop-color="#eacfff"/>
      <stop offset="50%" stop-color="#c77dff"/>
      <stop offset="100%" stop-color="#4a0e8f"/>
    </radialGradient>
  </defs>
  <rect width="512" height="512" fill="url(#bg3)"/>
  <ellipse cx="256" cy="272" rx="210" ry="52" stroke="rgba(255,215,80,0.35)" stroke-width="14" fill="none" stroke-dasharray="380 280"/>
  <circle cx="256" cy="268" r="168" fill="url(#body3)"/>
  <ellipse cx="256" cy="272" rx="210" ry="52" stroke="rgba(255,215,80,0.65)" stroke-width="14" fill="none" stroke-dasharray="280 380" stroke-dashoffset="380"/>
  <ellipse cx="210" cy="250" rx="44" ry="48" fill="white"/>
  <ellipse cx="302" cy="250" rx="44" ry="48" fill="white"/>
  <circle cx="218" cy="258" r="26" fill="#1a0533"/>
  <circle cx="310" cy="258" r="26" fill="#1a0533"/>
  <circle cx="226" cy="248" r="11" fill="white"/>
  <circle cx="318" cy="248" r="11" fill="white"/>
  <path d="M186 318 Q256 378 326 318" stroke="white" stroke-width="18" fill="none" stroke-linecap="round"/>
  <line x1="208" y1="108" x2="180" y2="42" stroke="rgba(255,255,255,0.55)" stroke-width="10" stroke-linecap="round"/>
  <circle cx="172" cy="26" r="18" fill="#ffd60a"/>
  <line x1="304" y1="108" x2="332" y2="42" stroke="rgba(255,255,255,0.55)" stroke-width="10" stroke-linecap="round"/>
  <circle cx="340" cy="26" r="18" fill="#ffd60a"/>
</svg>
